name rise32.9588peak41.5061fall63.4684.mot
datacolumns 19
datarows 36
range 16.15994500000000 16.22494000000000
endheader
time	ground_force1_vx	ground_force1_vy	ground_force1_vz	ground_force1_px	ground_force1_py	ground_force1_pz	ground_force2_vx	ground_force2_vy	ground_force2_vz	ground_force2_px	ground_force2_py	ground_force2_pz	ground_torque1_x	ground_torque1_y	ground_torque1_z	ground_torque2_x	ground_torque2_y	ground_torque2_z	
16.15994500000000	56.70581800000000	744.84744699999999	45.02358900000000	0.27474500000000	0.00000000000000	0.09994600000000	0.00000000000000	0.00000000000000	0.00000000000000	0.00000000000000	0.00000000000000	0.00000000000000	0.00000000000000	12.53516700000000	0.00000000000000	0.00000000000000	0.00000000000000	0.00000000000000	
16.16160900000000	56.07963800000000	747.19507699999997	45.00329200000000	0.27384100000000	0.00000000000000	0.09992500000000	0.00000000000000	0.00000000000000	0.00000000000000	0.00000000000000	0.00000000000000	0.00000000000000	0.00000000000000	12.53511300000000	0.00000000000000	0.00000000000000	0.00000000000000	0.00000000000000	
16.16327100000000	55.45958600000000	749.47189400000002	44.98397700000000	0.27296500000000	0.00000000000000	0.09990500000000	0.00000000000000	0.00000000000000	0.00000000000000	0.00000000000000	0.00000000000000	0.00000000000000	0.00000000000000	12.53712000000000	0.00000000000000	0.00000000000000	0.00000000000000	0.00000000000000	
16.16493900000000	54.84595100000000	751.67611899999997	44.96588800000000	0.27211500000000	0.00000000000000	0.09988500000000	0.00000000000000	0.00000000000000	0.00000000000000	0.00000000000000	0.00000000000000	0.00000000000000	0.00000000000000	12.54121800000000	0.00000000000000	0.00000000000000	0.00000000000000	0.00000000000000	
16.16661000000000	54.23894400000000	753.80591500000003	44.94919600000000	0.27128900000000	0.00000000000000	0.09986700000000	0.00000000000000	0.00000000000000	0.00000000000000	0.00000000000000	0.00000000000000	0.00000000000000	0.00000000000000	12.54740300000000	0.00000000000000	0.00000000000000	0.00000000000000	0.00000000000000	
16.16827500000000	53.63870300000000	755.85939900000005	44.93400500000000	0.27048500000000	0.00000000000000	0.09984900000000	0.00000000000000	0.00000000000000	0.00000000000000	0.00000000000000	0.00000000000000	0.00000000000000	0.00000000000000	12.55563800000000	0.00000000000000	0.00000000000000	0.00000000000000	0.00000000000000	
16.16993900000000	53.04529500000000	757.83465899999999	44.92035100000000	0.26970100000000	0.00000000000000	0.09983300000000	0.00000000000000	0.00000000000000	0.00000000000000	0.00000000000000	0.00000000000000	0.00000000000000	0.00000000000000	12.56584900000000	0.00000000000000	0.00000000000000	0.00000000000000	0.00000000000000	
16.17160400000000	52.45872400000000	759.72977500000002	44.90821200000000	0.26893400000000	0.00000000000000	0.09981700000000	0.00000000000000	0.00000000000000	0.00000000000000	0.00000000000000	0.00000000000000	0.00000000000000	0.00000000000000	12.57793300000000	0.00000000000000	0.00000000000000	0.00000000000000	0.00000000000000	
16.17327000000000	51.87893500000000	761.54282699999999	44.89750300000000	0.26818200000000	0.00000000000000	0.09980300000000	0.00000000000000	0.00000000000000	0.00000000000000	0.00000000000000	0.00000000000000	0.00000000000000	0.00000000000000	12.59175500000000	0.00000000000000	0.00000000000000	0.00000000000000	0.00000000000000	
16.17494400000000	51.30582300000000	763.27192000000002	44.88808800000000	0.26744300000000	0.00000000000000	0.09979100000000	0.00000000000000	0.00000000000000	0.00000000000000	0.00000000000000	0.00000000000000	0.00000000000000	0.00000000000000	12.60715500000000	0.00000000000000	0.00000000000000	0.00000000000000	0.00000000000000	
16.17660900000000	50.73923400000000	764.91519400000004	44.87977500000000	0.26671400000000	0.00000000000000	0.09977900000000	0.00000000000000	0.00000000000000	0.00000000000000	0.00000000000000	0.00000000000000	0.00000000000000	0.00000000000000	12.62394600000000	0.00000000000000	0.00000000000000	0.00000000000000	0.00000000000000	
16.17828500000000	50.17897100000000	766.47084500000005	44.87232900000000	0.26599300000000	0.00000000000000	0.09976900000000	0.00000000000000	0.00000000000000	0.00000000000000	0.00000000000000	0.00000000000000	0.00000000000000	0.00000000000000	12.64191600000000	0.00000000000000	0.00000000000000	0.00000000000000	0.00000000000000	
16.17994200000000	49.62480600000000	767.93713500000001	44.86547100000000	0.26527900000000	0.00000000000000	0.09976100000000	0.00000000000000	0.00000000000000	0.00000000000000	0.00000000000000	0.00000000000000	0.00000000000000	0.00000000000000	12.66083400000000	0.00000000000000	0.00000000000000	0.00000000000000	0.00000000000000	
16.18161000000000	49.07648000000000	769.31241199999999	44.85888300000000	0.26456700000000	0.00000000000000	0.09975500000000	0.00000000000000	0.00000000000000	0.00000000000000	0.00000000000000	0.00000000000000	0.00000000000000	0.00000000000000	12.68045100000000	0.00000000000000	0.00000000000000	0.00000000000000	0.00000000000000	
16.18331100000000	48.53370900000000	770.59511699999996	44.85221600000000	0.26385600000000	0.00000000000000	0.09975000000000	0.00000000000000	0.00000000000000	0.00000000000000	0.00000000000000	0.00000000000000	0.00000000000000	0.00000000000000	12.70049800000000	0.00000000000000	0.00000000000000	0.00000000000000	0.00000000000000	
16.18494100000000	47.99619300000000	771.78380700000002	44.84509100000000	0.26314400000000	0.00000000000000	0.09974600000000	0.00000000000000	0.00000000000000	0.00000000000000	0.00000000000000	0.00000000000000	0.00000000000000	0.00000000000000	12.72069600000000	0.00000000000000	0.00000000000000	0.00000000000000	0.00000000000000	
16.18660200000000	47.46362000000000	772.87716000000000	44.83710500000000	0.26242800000000	0.00000000000000	0.09974500000000	0.00000000000000	0.00000000000000	0.00000000000000	0.00000000000000	0.00000000000000	0.00000000000000	0.00000000000000	12.74075300000000	0.00000000000000	0.00000000000000	0.00000000000000	0.00000000000000	
16.18827200000000	46.93567000000000	773.87398900000005	44.82783800000000	0.26170600000000	0.00000000000000	0.09974500000000	0.00000000000000	0.00000000000000	0.00000000000000	0.00000000000000	0.00000000000000	0.00000000000000	0.00000000000000	12.76036700000000	0.00000000000000	0.00000000000000	0.00000000000000	0.00000000000000	
16.18994300000000	46.41202300000000	774.77325499999995	44.81685300000000	0.26097700000000	0.00000000000000	0.09974700000000	0.00000000000000	0.00000000000000	0.00000000000000	0.00000000000000	0.00000000000000	0.00000000000000	0.00000000000000	12.77923100000000	0.00000000000000	0.00000000000000	0.00000000000000	0.00000000000000	
16.19160900000000	45.89235900000000	775.57407699999999	44.80370700000000	0.26023800000000	0.00000000000000	0.09975100000000	0.00000000000000	0.00000000000000	0.00000000000000	0.00000000000000	0.00000000000000	0.00000000000000	0.00000000000000	12.79703500000000	0.00000000000000	0.00000000000000	0.00000000000000	0.00000000000000	
16.19327500000000	45.37637100000000	776.27573900000004	44.78795100000000	0.25948700000000	0.00000000000000	0.09975700000000	0.00000000000000	0.00000000000000	0.00000000000000	0.00000000000000	0.00000000000000	0.00000000000000	0.00000000000000	12.81346500000000	0.00000000000000	0.00000000000000	0.00000000000000	0.00000000000000	
16.19493500000000	44.86376000000000	776.87770100000000	44.76913300000000	0.25872300000000	0.00000000000000	0.09976500000000	0.00000000000000	0.00000000000000	0.00000000000000	0.00000000000000	0.00000000000000	0.00000000000000	0.00000000000000	12.82821000000000	0.00000000000000	0.00000000000000	0.00000000000000	0.00000000000000	
16.19660800000000	44.35424600000000	777.37960399999997	44.74681000000000	0.25794300000000	0.00000000000000	0.09977400000000	0.00000000000000	0.00000000000000	0.00000000000000	0.00000000000000	0.00000000000000	0.00000000000000	0.00000000000000	12.84096200000000	0.00000000000000	0.00000000000000	0.00000000000000	0.00000000000000	
16.19827700000000	43.84756600000000	777.78127900000004	44.72054400000000	0.25714700000000	0.00000000000000	0.09978600000000	0.00000000000000	0.00000000000000	0.00000000000000	0.00000000000000	0.00000000000000	0.00000000000000	0.00000000000000	12.85141900000000	0.00000000000000	0.00000000000000	0.00000000000000	0.00000000000000	
16.19994200000000	43.34348200000000	778.08275200000003	44.68990900000000	0.25633300000000	0.00000000000000	0.09979900000000	0.00000000000000	0.00000000000000	0.00000000000000	0.00000000000000	0.00000000000000	0.00000000000000	0.00000000000000	12.85928600000000	0.00000000000000	0.00000000000000	0.00000000000000	0.00000000000000	
16.20160200000000	42.84178100000000	778.28424700000005	44.65449700000000	0.25550000000000	0.00000000000000	0.09981300000000	0.00000000000000	0.00000000000000	0.00000000000000	0.00000000000000	0.00000000000000	0.00000000000000	0.00000000000000	12.86427800000000	0.00000000000000	0.00000000000000	0.00000000000000	0.00000000000000	
16.20327000000000	42.34227800000000	778.38618899999994	44.61391800000000	0.25464700000000	0.00000000000000	0.09983000000000	0.00000000000000	0.00000000000000	0.00000000000000	0.00000000000000	0.00000000000000	0.00000000000000	0.00000000000000	12.86612200000000	0.00000000000000	0.00000000000000	0.00000000000000	0.00000000000000	
16.20493900000000	41.84482000000000	778.38921100000005	44.56780400000000	0.25377300000000	0.00000000000000	0.09984800000000	0.00000000000000	0.00000000000000	0.00000000000000	0.00000000000000	0.00000000000000	0.00000000000000	0.00000000000000	12.86456000000000	0.00000000000000	0.00000000000000	0.00000000000000	0.00000000000000	
16.20660600000000	41.34928200000000	778.29414899999995	44.51581200000000	0.25287700000000	0.00000000000000	0.09986800000000	0.00000000000000	0.00000000000000	0.00000000000000	0.00000000000000	0.00000000000000	0.00000000000000	0.00000000000000	12.85934800000000	0.00000000000000	0.00000000000000	0.00000000000000	0.00000000000000	
16.20827000000000	40.85557400000000	778.10204799999997	44.45762800000000	0.25195800000000	0.00000000000000	0.09988900000000	0.00000000000000	0.00000000000000	0.00000000000000	0.00000000000000	0.00000000000000	0.00000000000000	0.00000000000000	12.85025900000000	0.00000000000000	0.00000000000000	0.00000000000000	0.00000000000000	
16.21660300000000	40.36363900000000	777.81415900000002	44.39296900000000	0.25101700000000	0.00000000000000	0.09991200000000	0.00000000000000	0.00000000000000	0.00000000000000	0.00000000000000	0.00000000000000	0.00000000000000	0.00000000000000	12.83708500000000	0.00000000000000	0.00000000000000	0.00000000000000	0.00000000000000	
16.21826800000000	39.87345300000000	777.43193799999995	44.32158000000000	0.25005300000000	0.00000000000000	0.09993600000000	0.00000000000000	0.00000000000000	0.00000000000000	0.00000000000000	0.00000000000000	0.00000000000000	0.00000000000000	12.81963700000000	0.00000000000000	0.00000000000000	0.00000000000000	0.00000000000000	
16.21993600000000	39.38502600000000	776.95704100000000	44.24324400000000	0.24906500000000	0.00000000000000	0.09996100000000	0.00000000000000	0.00000000000000	0.00000000000000	0.00000000000000	0.00000000000000	0.00000000000000	0.00000000000000	12.79774700000000	0.00000000000000	0.00000000000000	0.00000000000000	0.00000000000000	
16.22160200000000	38.89839900000000	776.39132900000004	44.15777700000000	0.24805500000000	0.00000000000000	0.09998800000000	0.00000000000000	0.00000000000000	0.00000000000000	0.00000000000000	0.00000000000000	0.00000000000000	0.00000000000000	12.77126900000000	0.00000000000000	0.00000000000000	0.00000000000000	0.00000000000000	
16.22327400000000	38.41364800000000	775.73685200000000	44.06502900000000	0.24702100000000	0.00000000000000	0.10001500000000	0.00000000000000	0.00000000000000	0.00000000000000	0.00000000000000	0.00000000000000	0.00000000000000	0.00000000000000	12.74007800000000	0.00000000000000	0.00000000000000	0.00000000000000	0.00000000000000	
16.22494000000000	37.93087700000000	774.99585600000000	43.96489000000000	0.24596500000000	0.00000000000000	0.10004400000000	0.00000000000000	0.00000000000000	0.00000000000000	0.00000000000000	0.00000000000000	0.00000000000000	0.00000000000000	12.70407100000000	0.00000000000000	0.00000000000000	0.00000000000000	0.00000000000000	
